# xmcd
# 
# Track frame offsets:
#     150
#     19372
#     35112
#     46937
#     60980
#     77045
#     92095
#     105150
#     116400
#     130192
#     145907
#     161620
#     174735
#     186465
#     202537
#     216402
#     234315
#     250880
#     262287
#     276247
# 
# Disc length: 3886
# 
# Revision: 3
# Processed by: cddbd v1.5.2PL0 Copyright (c) Steve Scherf et al.
# Submitted via: BonkEnc v1.0
# 
DISCID=1e0f2c14
DTITLE=Sérgio Reis - O Essencial De Sérgio Reis
DYEAR=1999
DGENRE=Country
TTITLE0=O Menino Da Gaita
TTITLE1=O Vai E Vem Do Carreiro
TTITLE2=Fio De Cabelo
TTITLE3=A Boiada
TTITLE4=Obras Do Poeta (Os Passarinhos)
TTITLE5=Não Quero Piedade
TTITLE6=Canoeiro Apaixonado
TTITLE7=Se Ela Voltar
TTITLE8=A Gaivota
TTITLE9=Porta Do Mundo
TTITLE10=Filho Pródigo
TTITLE11=Coração Pede Perdão
TTITLE12=Recolhida
TTITLE13=De Volta A Casa (Back Home Again)
TTITLE14=O Adeus Vermelho
TTITLE15=Juliana
TTITLE16=Riozinho
TTITLE17=Castelo De Amor
TTITLE18=Na Estrada Do Sonho
TTITLE19=Paloma Blanca
EXTD=
EXTT0=
EXTT1=
EXTT2=
EXTT3=
EXTT4=
EXTT5=
EXTT6=
EXTT7=
EXTT8=
EXTT9=
EXTT10=
EXTT11=
EXTT12=
EXTT13=
EXTT14=
EXTT15=
EXTT16=
EXTT17=
EXTT18=
EXTT19=
PLAYORDER=
